<mxfile host="Electron" modified="2024-02-26T19:18:20.707Z" agent="Mozilla/5.0 (Macintosh; Intel Mac OS X 10_15_7) AppleWebKit/537.36 (KHTML, like Gecko) draw.io/23.1.5 Chrome/120.0.6099.109 Electron/28.1.0 Safari/537.36" etag="OETSqUoK86zPvnSqUP0_" version="23.1.5" type="device">
  <diagram name="Page-1" id="sMBefzLCpiR2ebWWNsJE">
    <mxGraphModel dx="383" dy="287" grid="1" gridSize="10" guides="1" tooltips="1" connect="1" arrows="1" fold="1" page="1" pageScale="1" pageWidth="850" pageHeight="1100" math="0" shadow="0">
      <root>
        <mxCell id="0" />
        <mxCell id="1" parent="0" />
        <mxCell id="VVkygvZ0o7O_Oq38gnLx-4" style="edgeStyle=orthogonalEdgeStyle;rounded=0;orthogonalLoop=1;jettySize=auto;html=1;exitX=0;exitY=1;exitDx=0;exitDy=0;entryX=1;entryY=0.5;entryDx=0;entryDy=0;" parent="1" source="VVkygvZ0o7O_Oq38gnLx-1" target="VVkygvZ0o7O_Oq38gnLx-2" edge="1">
          <mxGeometry relative="1" as="geometry" />
        </mxCell>
        <mxCell id="VVkygvZ0o7O_Oq38gnLx-5" style="edgeStyle=orthogonalEdgeStyle;rounded=0;orthogonalLoop=1;jettySize=auto;html=1;exitX=1;exitY=1;exitDx=0;exitDy=0;entryX=0;entryY=0.5;entryDx=0;entryDy=0;" parent="1" source="VVkygvZ0o7O_Oq38gnLx-1" target="VVkygvZ0o7O_Oq38gnLx-3" edge="1">
          <mxGeometry relative="1" as="geometry" />
        </mxCell>
        <mxCell id="VVkygvZ0o7O_Oq38gnLx-1" value="Day/&lt;br&gt;Night&lt;br&gt;Cycle" style="rhombus;whiteSpace=wrap;html=1;fontStyle=1" parent="1" vertex="1">
          <mxGeometry x="385" y="10" width="80" height="80" as="geometry" />
        </mxCell>
        <mxCell id="VVkygvZ0o7O_Oq38gnLx-7" style="edgeStyle=orthogonalEdgeStyle;rounded=0;orthogonalLoop=1;jettySize=auto;html=1;exitX=0.25;exitY=1;exitDx=0;exitDy=0;entryX=0.5;entryY=0;entryDx=0;entryDy=0;" parent="1" source="VVkygvZ0o7O_Oq38gnLx-2" target="VVkygvZ0o7O_Oq38gnLx-6" edge="1">
          <mxGeometry relative="1" as="geometry" />
        </mxCell>
        <mxCell id="a-tWaZwPCyAhXtBM_cI1-2" style="edgeStyle=orthogonalEdgeStyle;rounded=0;orthogonalLoop=1;jettySize=auto;html=1;exitX=0.5;exitY=0;exitDx=0;exitDy=0;entryX=0.5;entryY=1;entryDx=0;entryDy=0;" parent="1" source="VVkygvZ0o7O_Oq38gnLx-2" target="a-tWaZwPCyAhXtBM_cI1-1" edge="1">
          <mxGeometry relative="1" as="geometry" />
        </mxCell>
        <mxCell id="VVkygvZ0o7O_Oq38gnLx-2" value="Weather&lt;br&gt;(sky.tscn)" style="rounded=0;whiteSpace=wrap;html=1;fontSize=10;" parent="1" vertex="1">
          <mxGeometry x="120" y="120" width="80" height="40" as="geometry" />
        </mxCell>
        <mxCell id="VVkygvZ0o7O_Oq38gnLx-23" style="edgeStyle=orthogonalEdgeStyle;rounded=0;orthogonalLoop=1;jettySize=auto;html=1;exitX=0.75;exitY=1;exitDx=0;exitDy=0;" parent="1" source="VVkygvZ0o7O_Oq38gnLx-3" target="VVkygvZ0o7O_Oq38gnLx-22" edge="1">
          <mxGeometry relative="1" as="geometry" />
        </mxCell>
        <mxCell id="KNaz0oER7aez-V8XWjQQ-2" style="edgeStyle=orthogonalEdgeStyle;rounded=0;orthogonalLoop=1;jettySize=auto;html=1;exitX=0;exitY=0.75;exitDx=0;exitDy=0;entryX=1;entryY=0.25;entryDx=0;entryDy=0;" parent="1" source="VVkygvZ0o7O_Oq38gnLx-3" target="KNaz0oER7aez-V8XWjQQ-1" edge="1">
          <mxGeometry relative="1" as="geometry" />
        </mxCell>
        <mxCell id="VVkygvZ0o7O_Oq38gnLx-3" value="Day/Night" style="rounded=0;whiteSpace=wrap;html=1;fontSize=10;" parent="1" vertex="1">
          <mxGeometry x="640" y="120" width="80" height="40" as="geometry" />
        </mxCell>
        <mxCell id="VVkygvZ0o7O_Oq38gnLx-9" style="edgeStyle=orthogonalEdgeStyle;rounded=0;orthogonalLoop=1;jettySize=auto;html=1;entryX=0;entryY=0.5;entryDx=0;entryDy=0;" parent="1" source="VVkygvZ0o7O_Oq38gnLx-6" target="VVkygvZ0o7O_Oq38gnLx-8" edge="1">
          <mxGeometry relative="1" as="geometry" />
        </mxCell>
        <mxCell id="VVkygvZ0o7O_Oq38gnLx-11" style="edgeStyle=orthogonalEdgeStyle;rounded=0;orthogonalLoop=1;jettySize=auto;html=1;exitX=0.5;exitY=1;exitDx=0;exitDy=0;entryX=0.5;entryY=0;entryDx=0;entryDy=0;" parent="1" source="VVkygvZ0o7O_Oq38gnLx-6" target="VVkygvZ0o7O_Oq38gnLx-10" edge="1">
          <mxGeometry relative="1" as="geometry" />
        </mxCell>
        <mxCell id="VVkygvZ0o7O_Oq38gnLx-6" value="Rain" style="rounded=0;whiteSpace=wrap;html=1;fontSize=8;" parent="1" vertex="1">
          <mxGeometry x="80" y="200" width="40" height="40" as="geometry" />
        </mxCell>
        <mxCell id="VVkygvZ0o7O_Oq38gnLx-15" style="edgeStyle=orthogonalEdgeStyle;rounded=0;orthogonalLoop=1;jettySize=auto;html=1;exitX=0.5;exitY=1;exitDx=0;exitDy=0;entryX=0.5;entryY=0;entryDx=0;entryDy=0;" parent="1" source="VVkygvZ0o7O_Oq38gnLx-8" target="VVkygvZ0o7O_Oq38gnLx-14" edge="1">
          <mxGeometry relative="1" as="geometry" />
        </mxCell>
        <mxCell id="VVkygvZ0o7O_Oq38gnLx-8" value="Light Rain:&lt;br&gt;bit darker sky, light rain" style="rounded=0;whiteSpace=wrap;html=1;fontSize=8;" parent="1" vertex="1">
          <mxGeometry x="160" y="200" width="120" height="40" as="geometry" />
        </mxCell>
        <mxCell id="VVkygvZ0o7O_Oq38gnLx-13" style="edgeStyle=orthogonalEdgeStyle;rounded=0;orthogonalLoop=1;jettySize=auto;html=1;exitX=1;exitY=0.5;exitDx=0;exitDy=0;entryX=0;entryY=0.5;entryDx=0;entryDy=0;" parent="1" source="VVkygvZ0o7O_Oq38gnLx-10" target="VVkygvZ0o7O_Oq38gnLx-12" edge="1">
          <mxGeometry relative="1" as="geometry" />
        </mxCell>
        <mxCell id="VVkygvZ0o7O_Oq38gnLx-44" style="edgeStyle=orthogonalEdgeStyle;rounded=0;orthogonalLoop=1;jettySize=auto;html=1;exitX=0.5;exitY=1;exitDx=0;exitDy=0;entryX=0.5;entryY=0;entryDx=0;entryDy=0;" parent="1" source="VVkygvZ0o7O_Oq38gnLx-10" target="VVkygvZ0o7O_Oq38gnLx-43" edge="1">
          <mxGeometry relative="1" as="geometry" />
        </mxCell>
        <mxCell id="VVkygvZ0o7O_Oq38gnLx-10" value="Snow" style="rounded=0;whiteSpace=wrap;html=1;fontSize=8;" parent="1" vertex="1">
          <mxGeometry x="80" y="400" width="40" height="40" as="geometry" />
        </mxCell>
        <mxCell id="VVkygvZ0o7O_Oq38gnLx-19" style="edgeStyle=orthogonalEdgeStyle;rounded=0;orthogonalLoop=1;jettySize=auto;html=1;exitX=0.5;exitY=1;exitDx=0;exitDy=0;entryX=0.5;entryY=0;entryDx=0;entryDy=0;" parent="1" source="VVkygvZ0o7O_Oq38gnLx-12" target="VVkygvZ0o7O_Oq38gnLx-18" edge="1">
          <mxGeometry relative="1" as="geometry" />
        </mxCell>
        <mxCell id="VVkygvZ0o7O_Oq38gnLx-12" value="Light Snow/&lt;div&gt;darkish skies, light snow&lt;/div&gt;" style="rounded=0;whiteSpace=wrap;html=1;fontSize=8;" parent="1" vertex="1">
          <mxGeometry x="160" y="400" width="120" height="40" as="geometry" />
        </mxCell>
        <mxCell id="VVkygvZ0o7O_Oq38gnLx-17" style="edgeStyle=orthogonalEdgeStyle;rounded=0;orthogonalLoop=1;jettySize=auto;html=1;exitX=0.5;exitY=1;exitDx=0;exitDy=0;entryX=0.5;entryY=0;entryDx=0;entryDy=0;" parent="1" source="VVkygvZ0o7O_Oq38gnLx-14" target="VVkygvZ0o7O_Oq38gnLx-16" edge="1">
          <mxGeometry relative="1" as="geometry" />
        </mxCell>
        <mxCell id="VVkygvZ0o7O_Oq38gnLx-14" value="Heavy Rain:&lt;br&gt;darker sky, heavy rain" style="rounded=0;whiteSpace=wrap;html=1;fontSize=8;" parent="1" vertex="1">
          <mxGeometry x="160" y="260" width="120" height="40" as="geometry" />
        </mxCell>
        <mxCell id="VVkygvZ0o7O_Oq38gnLx-16" value="Windy Rain:&lt;br&gt;darker sky, sideways rain" style="rounded=0;whiteSpace=wrap;html=1;fontSize=8;" parent="1" vertex="1">
          <mxGeometry x="160" y="320" width="120" height="40" as="geometry" />
        </mxCell>
        <mxCell id="VVkygvZ0o7O_Oq38gnLx-21" style="edgeStyle=orthogonalEdgeStyle;rounded=0;orthogonalLoop=1;jettySize=auto;html=1;entryX=0.5;entryY=0;entryDx=0;entryDy=0;" parent="1" source="VVkygvZ0o7O_Oq38gnLx-18" target="VVkygvZ0o7O_Oq38gnLx-20" edge="1">
          <mxGeometry relative="1" as="geometry" />
        </mxCell>
        <mxCell id="VVkygvZ0o7O_Oq38gnLx-18" value="Heavy Snow/&lt;div&gt;darker skies, heavy snow&lt;/div&gt;" style="rounded=0;whiteSpace=wrap;html=1;fontSize=8;" parent="1" vertex="1">
          <mxGeometry x="160" y="460" width="120" height="40" as="geometry" />
        </mxCell>
        <mxCell id="VVkygvZ0o7O_Oq38gnLx-20" value="Blizzard/&lt;div&gt;dark skies, heavy windy snow&lt;/div&gt;" style="rounded=0;whiteSpace=wrap;html=1;fontSize=8;" parent="1" vertex="1">
          <mxGeometry x="160" y="520" width="120" height="40" as="geometry" />
        </mxCell>
        <mxCell id="VVkygvZ0o7O_Oq38gnLx-25" style="edgeStyle=orthogonalEdgeStyle;rounded=0;orthogonalLoop=1;jettySize=auto;html=1;exitX=0;exitY=0.5;exitDx=0;exitDy=0;entryX=1;entryY=0.5;entryDx=0;entryDy=0;" parent="1" source="VVkygvZ0o7O_Oq38gnLx-22" target="VVkygvZ0o7O_Oq38gnLx-24" edge="1">
          <mxGeometry relative="1" as="geometry" />
        </mxCell>
        <mxCell id="VVkygvZ0o7O_Oq38gnLx-22" value="Cycle" style="rounded=0;whiteSpace=wrap;html=1;fontSize=8;" parent="1" vertex="1">
          <mxGeometry x="720" y="200" width="40" height="40" as="geometry" />
        </mxCell>
        <mxCell id="VVkygvZ0o7O_Oq38gnLx-30" style="edgeStyle=orthogonalEdgeStyle;rounded=0;orthogonalLoop=1;jettySize=auto;html=1;exitX=0;exitY=1;exitDx=0;exitDy=0;entryX=0.5;entryY=0;entryDx=0;entryDy=0;" parent="1" source="VVkygvZ0o7O_Oq38gnLx-24" target="VVkygvZ0o7O_Oq38gnLx-26" edge="1">
          <mxGeometry relative="1" as="geometry" />
        </mxCell>
        <mxCell id="VVkygvZ0o7O_Oq38gnLx-34" style="edgeStyle=orthogonalEdgeStyle;rounded=0;orthogonalLoop=1;jettySize=auto;html=1;exitX=0.25;exitY=1;exitDx=0;exitDy=0;entryX=0.5;entryY=0;entryDx=0;entryDy=0;" parent="1" source="VVkygvZ0o7O_Oq38gnLx-24" target="VVkygvZ0o7O_Oq38gnLx-29" edge="1">
          <mxGeometry relative="1" as="geometry" />
        </mxCell>
        <mxCell id="VVkygvZ0o7O_Oq38gnLx-35" style="edgeStyle=orthogonalEdgeStyle;rounded=0;orthogonalLoop=1;jettySize=auto;html=1;exitX=0.75;exitY=1;exitDx=0;exitDy=0;entryX=0.5;entryY=0;entryDx=0;entryDy=0;" parent="1" source="VVkygvZ0o7O_Oq38gnLx-24" target="VVkygvZ0o7O_Oq38gnLx-27" edge="1">
          <mxGeometry relative="1" as="geometry" />
        </mxCell>
        <mxCell id="VVkygvZ0o7O_Oq38gnLx-36" style="edgeStyle=orthogonalEdgeStyle;rounded=0;orthogonalLoop=1;jettySize=auto;html=1;exitX=1;exitY=1;exitDx=0;exitDy=0;" parent="1" source="VVkygvZ0o7O_Oq38gnLx-24" target="VVkygvZ0o7O_Oq38gnLx-28" edge="1">
          <mxGeometry relative="1" as="geometry" />
        </mxCell>
        <mxCell id="VVkygvZ0o7O_Oq38gnLx-24" value="SEASONS" style="rounded=0;whiteSpace=wrap;html=1;fontSize=8;" parent="1" vertex="1">
          <mxGeometry x="560" y="200" width="120" height="40" as="geometry" />
        </mxCell>
        <mxCell id="VVkygvZ0o7O_Oq38gnLx-39" style="edgeStyle=orthogonalEdgeStyle;rounded=0;orthogonalLoop=1;jettySize=auto;html=1;exitX=0.5;exitY=1;exitDx=0;exitDy=0;entryX=0.25;entryY=0;entryDx=0;entryDy=0;" parent="1" source="VVkygvZ0o7O_Oq38gnLx-26" target="VVkygvZ0o7O_Oq38gnLx-37" edge="1">
          <mxGeometry relative="1" as="geometry" />
        </mxCell>
        <mxCell id="VVkygvZ0o7O_Oq38gnLx-26" value="Winter" style="rounded=0;whiteSpace=wrap;html=1;fontSize=8;" parent="1" vertex="1">
          <mxGeometry x="480" y="280" width="40" height="40" as="geometry" />
        </mxCell>
        <mxCell id="VVkygvZ0o7O_Oq38gnLx-27" value="Spring" style="rounded=0;whiteSpace=wrap;html=1;fontSize=8;" parent="1" vertex="1">
          <mxGeometry x="640" y="280" width="40" height="40" as="geometry" />
        </mxCell>
        <mxCell id="VVkygvZ0o7O_Oq38gnLx-42" style="edgeStyle=orthogonalEdgeStyle;rounded=0;orthogonalLoop=1;jettySize=auto;html=1;entryX=0.75;entryY=0;entryDx=0;entryDy=0;" parent="1" source="VVkygvZ0o7O_Oq38gnLx-28" target="VVkygvZ0o7O_Oq38gnLx-38" edge="1">
          <mxGeometry relative="1" as="geometry" />
        </mxCell>
        <mxCell id="VVkygvZ0o7O_Oq38gnLx-28" value="Summer" style="rounded=0;whiteSpace=wrap;html=1;fontSize=8;" parent="1" vertex="1">
          <mxGeometry x="720" y="280" width="40" height="40" as="geometry" />
        </mxCell>
        <mxCell id="VVkygvZ0o7O_Oq38gnLx-40" style="edgeStyle=orthogonalEdgeStyle;rounded=0;orthogonalLoop=1;jettySize=auto;html=1;exitX=0.5;exitY=1;exitDx=0;exitDy=0;entryX=0.75;entryY=0;entryDx=0;entryDy=0;" parent="1" source="VVkygvZ0o7O_Oq38gnLx-29" target="VVkygvZ0o7O_Oq38gnLx-37" edge="1">
          <mxGeometry relative="1" as="geometry" />
        </mxCell>
        <mxCell id="VVkygvZ0o7O_Oq38gnLx-29" value="Fall" style="rounded=0;whiteSpace=wrap;html=1;fontSize=8;" parent="1" vertex="1">
          <mxGeometry x="560" y="280" width="40" height="40" as="geometry" />
        </mxCell>
        <mxCell id="VVkygvZ0o7O_Oq38gnLx-37" value="6:30 to 17:00 Daylight" style="rounded=0;whiteSpace=wrap;html=1;fontSize=8;" parent="1" vertex="1">
          <mxGeometry x="480" y="360" width="120" height="40" as="geometry" />
        </mxCell>
        <mxCell id="VVkygvZ0o7O_Oq38gnLx-38" value="5:30 to 20:00 Daylight" style="rounded=0;whiteSpace=wrap;html=1;fontSize=8;" parent="1" vertex="1">
          <mxGeometry x="640" y="360" width="120" height="40" as="geometry" />
        </mxCell>
        <mxCell id="VVkygvZ0o7O_Oq38gnLx-41" style="edgeStyle=orthogonalEdgeStyle;rounded=0;orthogonalLoop=1;jettySize=auto;html=1;exitX=0.5;exitY=1;exitDx=0;exitDy=0;entryX=0.25;entryY=0;entryDx=0;entryDy=0;" parent="1" source="VVkygvZ0o7O_Oq38gnLx-27" target="VVkygvZ0o7O_Oq38gnLx-38" edge="1">
          <mxGeometry relative="1" as="geometry" />
        </mxCell>
        <mxCell id="VVkygvZ0o7O_Oq38gnLx-47" style="edgeStyle=orthogonalEdgeStyle;rounded=0;orthogonalLoop=1;jettySize=auto;html=1;exitX=1;exitY=0.5;exitDx=0;exitDy=0;entryX=0;entryY=0.5;entryDx=0;entryDy=0;" parent="1" source="VVkygvZ0o7O_Oq38gnLx-43" target="VVkygvZ0o7O_Oq38gnLx-45" edge="1">
          <mxGeometry relative="1" as="geometry" />
        </mxCell>
        <mxCell id="VVkygvZ0o7O_Oq38gnLx-43" value="Wind" style="rounded=0;whiteSpace=wrap;html=1;fontSize=8;" parent="1" vertex="1">
          <mxGeometry x="80" y="600" width="40" height="40" as="geometry" />
        </mxCell>
        <mxCell id="VVkygvZ0o7O_Oq38gnLx-45" value="Windy/&lt;br&gt;flying leaves" style="rounded=0;whiteSpace=wrap;html=1;fontSize=8;" parent="1" vertex="1">
          <mxGeometry x="160" y="600" width="120" height="40" as="geometry" />
        </mxCell>
        <mxCell id="KNaz0oER7aez-V8XWjQQ-4" style="edgeStyle=orthogonalEdgeStyle;rounded=0;orthogonalLoop=1;jettySize=auto;html=1;exitX=0.5;exitY=1;exitDx=0;exitDy=0;entryX=0.5;entryY=0;entryDx=0;entryDy=0;" parent="1" source="KNaz0oER7aez-V8XWjQQ-1" target="KNaz0oER7aez-V8XWjQQ-3" edge="1">
          <mxGeometry relative="1" as="geometry" />
        </mxCell>
        <mxCell id="KNaz0oER7aez-V8XWjQQ-1" value="Lights" style="rounded=0;whiteSpace=wrap;html=1;fontSize=10;" parent="1" vertex="1">
          <mxGeometry x="360" y="140" width="80" height="40" as="geometry" />
        </mxCell>
        <mxCell id="KNaz0oER7aez-V8XWjQQ-3" value="Start/stop&lt;br&gt;depending on time" style="rounded=0;whiteSpace=wrap;html=1;fontSize=8;" parent="1" vertex="1">
          <mxGeometry x="380" y="200" width="40" height="40" as="geometry" />
        </mxCell>
        <mxCell id="fDy-899vEHlfvW-3nuNf-10" style="edgeStyle=orthogonalEdgeStyle;rounded=0;orthogonalLoop=1;jettySize=auto;html=1;exitX=0.5;exitY=1;exitDx=0;exitDy=0;entryX=0.5;entryY=0;entryDx=0;entryDy=0;" parent="1" source="gsE4YjvTZbsSA2tztFBP-1" target="fDy-899vEHlfvW-3nuNf-9" edge="1">
          <mxGeometry relative="1" as="geometry" />
        </mxCell>
        <mxCell id="gsE4YjvTZbsSA2tztFBP-1" value="Weather&lt;br&gt;Change" style="rhombus;whiteSpace=wrap;html=1;fontStyle=1" parent="1" vertex="1">
          <mxGeometry x="550" y="450" width="80" height="80" as="geometry" />
        </mxCell>
        <mxCell id="a-tWaZwPCyAhXtBM_cI1-3" style="edgeStyle=orthogonalEdgeStyle;rounded=0;orthogonalLoop=1;jettySize=auto;html=1;exitX=1;exitY=0.75;exitDx=0;exitDy=0;entryX=0;entryY=0.5;entryDx=0;entryDy=0;" parent="1" source="a-tWaZwPCyAhXtBM_cI1-1" target="gsE4YjvTZbsSA2tztFBP-1" edge="1">
          <mxGeometry relative="1" as="geometry">
            <Array as="points">
              <mxPoint x="330" y="78" />
              <mxPoint x="330" y="490" />
            </Array>
          </mxGeometry>
        </mxCell>
        <mxCell id="a-tWaZwPCyAhXtBM_cI1-1" value="Clock will make calls to the weather system at set intervals based on some random odds set by the season that will update every year (rainy year? drought? it&#39;s up to chance) then that will be fed to the Sky scene to generate rain, snow, wind, ect. and for how long then Clock will NOT send updates if the weather is set. Just sunny can also be set for a set amount of time..." style="rounded=0;whiteSpace=wrap;html=1;fontSize=8;" parent="1" vertex="1">
          <mxGeometry x="20" y="10" width="250" height="90" as="geometry" />
        </mxCell>
        <mxCell id="tuQrPEmnHmrB1J4rDiV7-15" style="edgeStyle=orthogonalEdgeStyle;rounded=0;orthogonalLoop=1;jettySize=auto;html=1;exitX=0.5;exitY=1;exitDx=0;exitDy=0;entryX=0.5;entryY=0;entryDx=0;entryDy=0;" parent="1" source="fDy-899vEHlfvW-3nuNf-9" target="fDy-899vEHlfvW-3nuNf-11" edge="1">
          <mxGeometry relative="1" as="geometry" />
        </mxCell>
        <mxCell id="-nKJHCXYioOiN_GJ0fzR-7" style="edgeStyle=orthogonalEdgeStyle;rounded=0;orthogonalLoop=1;jettySize=auto;html=1;exitX=1;exitY=0.5;exitDx=0;exitDy=0;entryX=0;entryY=0.5;entryDx=0;entryDy=0;" edge="1" parent="1" source="fDy-899vEHlfvW-3nuNf-9" target="-nKJHCXYioOiN_GJ0fzR-6">
          <mxGeometry relative="1" as="geometry" />
        </mxCell>
        <mxCell id="fDy-899vEHlfvW-3nuNf-9" value="Day has changed. The clock will run a weather update" style="rounded=0;whiteSpace=wrap;html=1;fontSize=8;" parent="1" vertex="1">
          <mxGeometry x="530" y="570" width="120" height="60" as="geometry" />
        </mxCell>
        <mxCell id="tuQrPEmnHmrB1J4rDiV7-2" style="edgeStyle=orthogonalEdgeStyle;rounded=0;orthogonalLoop=1;jettySize=auto;html=1;exitX=0.5;exitY=1;exitDx=0;exitDy=0;entryX=0.5;entryY=0;entryDx=0;entryDy=0;" parent="1" source="fDy-899vEHlfvW-3nuNf-11" target="tuQrPEmnHmrB1J4rDiV7-1" edge="1">
          <mxGeometry relative="1" as="geometry" />
        </mxCell>
        <mxCell id="fDy-899vEHlfvW-3nuNf-11" value="Season" style="rounded=0;whiteSpace=wrap;html=1;fontSize=8;" parent="1" vertex="1">
          <mxGeometry x="570" y="660" width="40" height="40" as="geometry" />
        </mxCell>
        <mxCell id="tuQrPEmnHmrB1J4rDiV7-7" style="edgeStyle=orthogonalEdgeStyle;rounded=0;orthogonalLoop=1;jettySize=auto;html=1;exitX=0.5;exitY=1;exitDx=0;exitDy=0;entryX=0.5;entryY=0;entryDx=0;entryDy=0;" parent="1" source="tuQrPEmnHmrB1J4rDiV7-1" target="tuQrPEmnHmrB1J4rDiV7-4" edge="1">
          <mxGeometry relative="1" as="geometry" />
        </mxCell>
        <mxCell id="tuQrPEmnHmrB1J4rDiV7-8" style="edgeStyle=orthogonalEdgeStyle;rounded=0;orthogonalLoop=1;jettySize=auto;html=1;exitX=0;exitY=0.5;exitDx=0;exitDy=0;entryX=0.5;entryY=0;entryDx=0;entryDy=0;" parent="1" source="tuQrPEmnHmrB1J4rDiV7-1" target="tuQrPEmnHmrB1J4rDiV7-3" edge="1">
          <mxGeometry relative="1" as="geometry" />
        </mxCell>
        <mxCell id="-nKJHCXYioOiN_GJ0fzR-2" style="edgeStyle=orthogonalEdgeStyle;rounded=0;orthogonalLoop=1;jettySize=auto;html=1;exitX=1;exitY=0.5;exitDx=0;exitDy=0;entryX=0;entryY=0.5;entryDx=0;entryDy=0;" edge="1" parent="1" source="tuQrPEmnHmrB1J4rDiV7-1" target="-nKJHCXYioOiN_GJ0fzR-1">
          <mxGeometry relative="1" as="geometry" />
        </mxCell>
        <mxCell id="-nKJHCXYioOiN_GJ0fzR-4" style="edgeStyle=orthogonalEdgeStyle;rounded=0;orthogonalLoop=1;jettySize=auto;html=1;exitX=0;exitY=0.75;exitDx=0;exitDy=0;entryX=0.5;entryY=0;entryDx=0;entryDy=0;" edge="1" parent="1" source="tuQrPEmnHmrB1J4rDiV7-1" target="-nKJHCXYioOiN_GJ0fzR-3">
          <mxGeometry relative="1" as="geometry" />
        </mxCell>
        <mxCell id="tuQrPEmnHmrB1J4rDiV7-1" value="Weather&lt;br&gt;Event" style="rounded=0;whiteSpace=wrap;html=1;fontSize=8;" parent="1" vertex="1">
          <mxGeometry x="570" y="740" width="40" height="40" as="geometry" />
        </mxCell>
        <mxCell id="tuQrPEmnHmrB1J4rDiV7-11" style="edgeStyle=orthogonalEdgeStyle;rounded=0;orthogonalLoop=1;jettySize=auto;html=1;exitX=0.75;exitY=0;exitDx=0;exitDy=0;entryX=0.5;entryY=0;entryDx=0;entryDy=0;" parent="1" source="tuQrPEmnHmrB1J4rDiV7-3" target="tuQrPEmnHmrB1J4rDiV7-5" edge="1">
          <mxGeometry relative="1" as="geometry" />
        </mxCell>
        <mxCell id="tuQrPEmnHmrB1J4rDiV7-12" style="edgeStyle=orthogonalEdgeStyle;rounded=0;orthogonalLoop=1;jettySize=auto;html=1;exitX=0.5;exitY=1;exitDx=0;exitDy=0;entryX=0;entryY=0.5;entryDx=0;entryDy=0;" parent="1" source="tuQrPEmnHmrB1J4rDiV7-3" target="tuQrPEmnHmrB1J4rDiV7-6" edge="1">
          <mxGeometry relative="1" as="geometry" />
        </mxCell>
        <mxCell id="tuQrPEmnHmrB1J4rDiV7-3" value="Light" style="rounded=0;whiteSpace=wrap;html=1;fontSize=8;" parent="1" vertex="1">
          <mxGeometry x="450" y="800" width="40" height="40" as="geometry" />
        </mxCell>
        <mxCell id="tuQrPEmnHmrB1J4rDiV7-10" style="edgeStyle=orthogonalEdgeStyle;rounded=0;orthogonalLoop=1;jettySize=auto;html=1;" parent="1" source="tuQrPEmnHmrB1J4rDiV7-4" target="tuQrPEmnHmrB1J4rDiV7-5" edge="1">
          <mxGeometry relative="1" as="geometry" />
        </mxCell>
        <mxCell id="tuQrPEmnHmrB1J4rDiV7-13" style="edgeStyle=orthogonalEdgeStyle;rounded=0;orthogonalLoop=1;jettySize=auto;html=1;exitX=0.5;exitY=1;exitDx=0;exitDy=0;entryX=0.5;entryY=0;entryDx=0;entryDy=0;" parent="1" source="tuQrPEmnHmrB1J4rDiV7-4" target="tuQrPEmnHmrB1J4rDiV7-6" edge="1">
          <mxGeometry relative="1" as="geometry" />
        </mxCell>
        <mxCell id="tuQrPEmnHmrB1J4rDiV7-4" value="Heavy" style="rounded=0;whiteSpace=wrap;html=1;fontSize=8;" parent="1" vertex="1">
          <mxGeometry x="570" y="800" width="40" height="40" as="geometry" />
        </mxCell>
        <mxCell id="tuQrPEmnHmrB1J4rDiV7-14" style="edgeStyle=orthogonalEdgeStyle;rounded=0;orthogonalLoop=1;jettySize=auto;html=1;exitX=0.5;exitY=1;exitDx=0;exitDy=0;entryX=1;entryY=0.5;entryDx=0;entryDy=0;" parent="1" source="tuQrPEmnHmrB1J4rDiV7-5" target="tuQrPEmnHmrB1J4rDiV7-6" edge="1">
          <mxGeometry relative="1" as="geometry" />
        </mxCell>
        <mxCell id="tuQrPEmnHmrB1J4rDiV7-5" value="Windy" style="rounded=0;whiteSpace=wrap;html=1;fontSize=8;" parent="1" vertex="1">
          <mxGeometry x="630" y="800" width="40" height="40" as="geometry" />
        </mxCell>
        <mxCell id="tuQrPEmnHmrB1J4rDiV7-16" style="edgeStyle=orthogonalEdgeStyle;rounded=0;orthogonalLoop=1;jettySize=auto;html=1;exitX=0.5;exitY=1;exitDx=0;exitDy=0;entryX=0;entryY=0.5;entryDx=0;entryDy=0;" parent="1" source="tuQrPEmnHmrB1J4rDiV7-6" target="fDy-899vEHlfvW-3nuNf-9" edge="1">
          <mxGeometry relative="1" as="geometry">
            <Array as="points">
              <mxPoint x="590" y="920" />
              <mxPoint x="400" y="920" />
              <mxPoint x="400" y="600" />
            </Array>
          </mxGeometry>
        </mxCell>
        <mxCell id="tuQrPEmnHmrB1J4rDiV7-6" value="Duration&lt;br&gt;(1 day for now)" style="rounded=0;whiteSpace=wrap;html=1;fontSize=8;" parent="1" vertex="1">
          <mxGeometry x="540" y="860" width="70" height="40" as="geometry" />
        </mxCell>
        <mxCell id="-nKJHCXYioOiN_GJ0fzR-1" value="Based on the lack of rain/snowfall in a given winter/spring season the crops of farms will not grow as well. Therefore prices for produce will go up..." style="rounded=0;whiteSpace=wrap;html=1;fontSize=8;" vertex="1" parent="1">
          <mxGeometry x="690" y="710" width="110" height="80" as="geometry" />
        </mxCell>
        <mxCell id="-nKJHCXYioOiN_GJ0fzR-5" style="edgeStyle=orthogonalEdgeStyle;rounded=0;orthogonalLoop=1;jettySize=auto;html=1;exitX=0.75;exitY=0;exitDx=0;exitDy=0;entryX=0.5;entryY=0;entryDx=0;entryDy=0;" edge="1" parent="1" source="-nKJHCXYioOiN_GJ0fzR-3" target="tuQrPEmnHmrB1J4rDiV7-5">
          <mxGeometry relative="1" as="geometry" />
        </mxCell>
        <mxCell id="-nKJHCXYioOiN_GJ0fzR-3" value="Normal" style="rounded=0;whiteSpace=wrap;html=1;fontSize=8;" vertex="1" parent="1">
          <mxGeometry x="510" y="800" width="40" height="40" as="geometry" />
        </mxCell>
        <mxCell id="-nKJHCXYioOiN_GJ0fzR-6" value="There is a base 8 that the weather will have to &#39;beat&#39; in order to start an event. Each season now has a modifier to add to the event roll..." style="rounded=0;whiteSpace=wrap;html=1;fontSize=8;" vertex="1" parent="1">
          <mxGeometry x="690" y="560" width="80" height="80" as="geometry" />
        </mxCell>
      </root>
    </mxGraphModel>
  </diagram>
</mxfile>
